<svg width="31" height="30" viewBox="0 0 31 30" fill="none" xmlns="http://www.w3.org/2000/svg">
<path d="M18.649 2.3189C18.168 2.31883 17.7018 2.48537 17.3297 2.79021C16.9575 3.09505 16.7025 3.51936 16.6079 3.991L16.1524 6.29736C16.1094 6.47877 16.0061 6.64024 15.8595 6.75543C15.7129 6.87062 15.5316 6.93272 15.3452 6.9316H14.3938C14.3049 6.93421 14.2166 6.91622 14.1358 6.87902C14.055 6.84183 13.9839 6.78645 13.9281 6.71722C13.8722 6.64798 13.8332 6.56677 13.8139 6.47992C13.7947 6.39308 13.7958 6.30297 13.8172 6.21663L14.8262 1.16572C14.8833 0.86862 15.0328 0.597151 15.2534 0.390061C15.4739 0.182972 15.7543 0.050846 16.0544 0.0125431H18.7182C18.8876 0.0100734 19.0555 0.0449773 19.21 0.114772C19.3644 0.184567 19.5015 0.287536 19.6116 0.416354C19.7217 0.545173 19.8021 0.696673 19.847 0.860077C19.8919 1.02348 19.9002 1.19477 19.8714 1.36176C19.8131 1.63978 19.6585 1.88828 19.4349 2.0634C19.2112 2.23852 18.9329 2.32901 18.649 2.3189Z" fill="#F5E4C0"/>
<path d="M21.2955 8.27506L22.7658 0.940855C22.8208 0.647609 22.9872 0.387066 23.2302 0.213961C23.4732 0.0408555 23.7738 -0.0313375 24.0689 0.0125483C24.1265 0.00821777 24.1843 0.00821777 24.2419 0.0125483H28.7854C29.0693 0.00243172 29.3476 0.0929204 29.5713 0.268044C29.7949 0.443167 29.9495 0.691667 30.0078 0.969685C30.0366 1.13667 30.0283 1.30796 29.9834 1.47137C29.9385 1.63477 29.8581 1.78627 29.748 1.91509C29.6379 2.04391 29.5008 2.14688 29.3464 2.21667C29.192 2.28647 29.0241 2.32137 28.8546 2.3189H26.5483C26.0672 2.31883 25.601 2.48538 25.2289 2.79022C24.8568 3.09505 24.6017 3.51937 24.5071 3.99101L21.8202 17.414C21.7649 17.7026 21.811 18.0014 21.9508 18.2599C22.0905 18.5184 22.3153 18.7206 22.5871 18.8324C23.4956 19.2132 24.2583 19.8748 24.7635 20.7204C25.2688 21.566 25.4901 22.5511 25.3951 23.5316C25.2553 24.6927 24.6897 25.7606 23.8078 26.5286C22.9258 27.2966 21.7902 27.71 20.6209 27.6888H18.476C18.476 28.1449 18.3408 28.5908 18.0873 28.9701C17.8339 29.3494 17.4737 29.645 17.0523 29.8196C16.6308 29.9941 16.1671 30.0398 15.7197 29.9508C15.2723 29.8618 14.8614 29.6422 14.5388 29.3196C14.2163 28.9971 13.9966 28.5861 13.9076 28.1387C13.8186 27.6913 13.8643 27.2276 14.0389 26.8062C14.2134 26.3847 14.5091 26.0245 14.8883 25.7711C15.2676 25.5177 15.7135 25.3824 16.1697 25.3824C16.258 25.3773 16.3466 25.3773 16.4349 25.3824C16.5154 25.3739 16.5966 25.3739 16.6771 25.3824H20.6786C21.2659 25.3957 21.8372 25.1908 22.2823 24.8075C22.7275 24.4241 23.0147 23.8895 23.0887 23.3067C23.1211 22.985 23.0854 22.6601 22.9841 22.3531C22.8827 22.0461 22.718 21.7639 22.5005 21.5246C22.283 21.2854 22.0177 21.0946 21.7217 20.9645C21.4257 20.8345 21.1057 20.7681 20.7824 20.7697H5.38747C4.44634 20.7692 3.53445 20.4426 2.80699 19.8455C2.07953 19.2484 1.58144 18.4177 1.39748 17.4947L0.0252005 10.7832C-0.0128004 10.5937 -0.00778761 10.3981 0.039869 10.2108C0.0875257 10.0235 0.176612 9.84928 0.300559 9.70098C0.424507 9.55269 0.580154 9.4341 0.756029 9.35397C0.931905 9.27383 1.12352 9.23419 1.31676 9.23796H20.1251C20.4015 9.23783 20.6693 9.14176 20.8828 8.96614C21.0962 8.79053 21.2421 8.54627 21.2955 8.27506ZM6.94426 13.8507C6.94426 13.5448 6.82277 13.2515 6.6065 13.0352C6.39024 12.819 6.09692 12.6975 5.79108 12.6975C5.48524 12.6975 5.19193 12.819 4.97566 13.0352C4.7594 13.2515 4.63791 13.5448 4.63791 13.8507V16.157C4.63791 16.4629 4.7594 16.7562 4.97566 16.9724C5.19193 17.1887 5.48524 17.3102 5.79108 17.3102C6.09692 17.3102 6.39024 17.1887 6.6065 16.9724C6.82277 16.7562 6.94426 16.4629 6.94426 16.157V13.8507ZM12.7101 13.8507C12.7101 13.5448 12.5886 13.2515 12.3724 13.0352C12.1561 12.819 11.8628 12.6975 11.557 12.6975C11.2511 12.6975 10.9578 12.819 10.7415 13.0352C10.5253 13.2515 10.4038 13.5448 10.4038 13.8507V16.157C10.4038 16.4629 10.5253 16.7562 10.7415 16.9724C10.9578 17.1887 11.2511 17.3102 11.557 17.3102C11.8628 17.3102 12.1561 17.1887 12.3724 16.9724C12.5886 16.7562 12.7101 16.4629 12.7101 16.157V13.8507ZM18.476 13.8507C18.476 13.5448 18.3545 13.2515 18.1383 13.0352C17.922 12.819 17.6287 12.6975 17.3228 12.6975C17.017 12.6975 16.7237 12.819 16.5074 13.0352C16.2912 13.2515 16.1697 13.5448 16.1697 13.8507V16.157C16.1697 16.4629 16.2912 16.7562 16.5074 16.9724C16.7237 17.1887 17.017 17.3102 17.3228 17.3102C17.6287 17.3102 17.922 17.1887 18.1383 16.9724C18.3545 16.7562 18.476 16.4629 18.476 16.157V13.8507Z" fill="#F5E4C0"/>
<path d="M2.395 28.2308C2.31296 27.8915 2.30902 27.538 2.38347 27.1969C2.45791 26.8559 2.6088 26.5362 2.82476 26.2619C3.04072 25.9877 3.31612 25.766 3.6302 25.6137C3.94428 25.4613 4.28885 25.3823 4.63793 25.3824H10.3404C10.6238 25.3714 10.902 25.4616 11.1249 25.637C11.3478 25.8124 11.501 26.0615 11.557 26.3396C11.5858 26.5066 11.5775 26.6779 11.5326 26.8413C11.4877 27.0047 11.4073 27.1562 11.2972 27.285C11.1871 27.4138 11.05 27.5168 10.8956 27.5866C10.7412 27.6564 10.5732 27.6913 10.4038 27.6888H6.94428C6.94547 28.2541 6.73902 28.8001 6.36415 29.2232C5.98927 29.6463 5.47208 29.9169 4.91077 29.9838C4.34947 30.0507 3.78316 29.9091 3.31938 29.5859C2.85559 29.2628 2.52665 28.7805 2.395 28.2308Z" fill="#F5E4C0"/>
</svg>
