<svg width="217" height="241" viewBox="0 0 217 241" fill="none" xmlns="http://www.w3.org/2000/svg">
<circle cx="216.5" cy="50.5" r="165.5" fill="#09814A"/>
<g clip-path="url(#clip0_13_159)">
<path d="M62.7525 199.517L65.8745 211.54L204.141 175.637C214.083 173.055 220.074 162.862 217.492 152.919C214.911 142.976 204.717 136.986 194.775 139.567L188.763 141.128L159.104 26.9084C158.243 23.5942 160.24 20.1964 163.555 19.3359L193.612 11.5308L190.49 -0.49231L160.433 7.31271C150.49 9.89446 144.499 20.0879 147.081 30.0304L158.008 72.1114L36.69 103.614L72.571 184.133L197.897 151.59C201.211 150.73 204.609 152.727 205.469 156.041C206.33 159.355 204.333 162.753 201.019 163.614L62.7525 199.517Z" fill="#FF9E5E"/>
<path d="M99.0544 215.758C100.776 222.386 107.571 226.38 114.2 224.659C120.828 222.938 124.822 216.142 123.101 209.514C121.38 202.886 114.584 198.892 107.956 200.613C101.327 202.334 97.3332 209.13 99.0544 215.758Z" fill="#7ED8F6"/>
<path d="M195.24 190.782C196.961 197.412 192.968 204.205 186.338 205.927C179.708 207.649 172.915 203.656 171.193 197.026C169.472 190.396 173.464 183.602 180.094 181.881C186.724 180.159 193.518 184.152 195.24 190.782Z" fill="#384949"/>
<path d="M107.956 200.613C101.327 202.334 97.3332 209.13 99.0544 215.758C100.776 222.386 107.571 226.38 114.2 224.659C120.828 222.938 124.822 216.142 123.101 209.514C121.38 202.886 114.584 198.892 107.956 200.613Z" fill="#384949"/>
<path d="M128.88 182.346L62.7525 199.517L65.8745 211.54L132.002 194.369L128.88 182.346Z" fill="#E37B35"/>
<path d="M72.5711 184.133L125.758 170.323L103.904 86.1605L36.69 103.614L72.5711 184.133Z" fill="#E37B35"/>
<path d="M140.206 102.402L128.183 105.524L137.549 141.593L149.572 138.471L140.206 102.402Z" fill="#4A696F"/>
<path d="M116.159 108.646L104.136 111.768L113.502 147.837L125.525 144.715L116.159 108.646Z" fill="#4A696F"/>
<path d="M110.148 110.207L104.136 111.768L113.502 147.837L119.514 146.276L110.148 110.207Z" fill="#384949"/>
<path d="M92.1131 114.89L80.0899 118.012L89.4559 154.081L101.479 150.959L92.1131 114.89Z" fill="#384949"/>
</g>
<defs>
<clipPath id="clip0_13_159">
<rect width="212" height="212" fill="white" transform="matrix(-0.967901 0.251331 0.251331 0.967901 205.195 -18)"/>
</clipPath>
</defs>
</svg>
